Coordinates
version=1
nRows=38
nColumns=12
inDegrees=yes

Units are S.I. units (second, meters, Newtons, ...)
Angles are in degrees

endheader
time	SC_y	SC_z	SC_x	AC_y	AC_z	AC_x	GH_y	GH_z	GH_yy	EL_x	PS_y
       0.0              -13.66           30.7          24.76          38.42         -8.463          -13.2          61.87          85.06         -61.23          110.7          80.42
   0.04938              -13.67          30.69          24.76          38.42         -8.461          -13.2          61.87          85.06         -61.19          110.7          80.42
   0.09876              -13.67          30.69          24.76          38.42         -8.459         -13.19          61.86          85.06         -61.16          110.7          80.43
    0.1481              -13.67          30.68          24.76          38.43         -8.456         -13.19          61.86          85.06         -61.12          110.7          80.44
    0.1975              -13.68          30.68          24.77          38.43         -8.454         -13.18          61.85          85.05         -61.08          110.6          80.45
    0.2469              -13.68          30.68          24.77          38.43         -8.451         -13.18          61.85          85.05         -61.04          110.6          80.46
    0.2963              -13.68          30.67          24.77          38.43         -8.448         -13.17          61.85          85.04         -60.99          110.6          80.48
    0.3457              -13.69          30.67          24.78          38.44         -8.445         -13.16          61.84          85.04         -60.94          110.6          80.49
     0.395              -13.69          30.66          24.78          38.44         -8.442         -13.16          61.83          85.04         -60.89          110.6           80.5
    0.4444               -13.7          30.66          24.78          38.44         -8.438         -13.15          61.83          85.03         -60.83          110.6          80.52
    0.4938              -13.71          30.65          24.79          38.45         -8.435         -13.14          61.82          85.03         -60.77          110.5          80.53
    0.5432              -13.71          30.64          24.79          38.45         -8.431         -13.13          61.82          85.02          -60.7          110.5          80.55
    0.5925              -13.72          30.64           24.8          38.46         -8.426         -13.12          61.81          85.01         -60.63          110.5          80.57
    0.6419              -13.73          30.63           24.8          38.46         -8.421         -13.11           61.8          85.01         -60.55          110.5          80.59
    0.6913              -13.74          30.62          24.81          38.47         -8.416          -13.1          61.79           85.0         -60.47          110.4          80.61
    0.7407              -13.74          30.61          24.81          38.47         -8.411         -13.09          61.78          84.99         -60.38          110.4          80.63
    0.7901              -13.75           30.6          24.82          38.48         -8.405         -13.08          61.77          84.98         -60.28          110.4          80.65
    0.8394              -13.76          30.59          24.83          38.48         -8.398         -13.07          61.76          84.98         -60.17          110.3          80.68
    0.8888              -13.77          30.58          24.83          38.49         -8.391         -13.05          61.75          84.97         -60.06          110.3          80.71
    0.9382              -13.79          30.57          24.84           38.5         -8.383         -13.04          61.74          84.95         -59.93          110.3          80.74
    0.9876               -13.8          30.55          24.85          38.51         -8.375         -13.02          61.72          84.94         -59.79          110.2          80.78
     1.037              -13.82          30.54          24.86          38.52         -8.365          -13.0          61.71          84.93         -59.63          110.2          80.82
     1.086              -13.83          30.52          24.87          38.53         -8.355         -12.98          61.69          84.92         -59.46          110.1          80.86
     1.136              -13.85           30.5          24.88          38.54         -8.343         -12.95          61.67           84.9         -59.27          110.0          80.91
     1.185              -13.87          30.48           24.9          38.55          -8.33         -12.93          61.65          84.88         -59.06          110.0          80.96
     1.234              -13.89          30.46          24.91          38.56         -8.316          -12.9          61.63          84.86         -58.83          109.9          81.02
     1.284              -13.92          30.43          24.93          38.58           -8.3         -12.86           61.6          84.84         -58.56          109.8          81.09
     1.333              -13.95           30.4          24.95           38.6         -8.282         -12.83          61.57          84.81         -58.27          109.7          81.16
     1.383              -13.98          30.37          24.97          38.62         -8.261         -12.79          61.54          84.79         -57.93          109.6          81.25
     1.432              -14.02          30.33          24.99          38.64         -8.238         -12.74           61.5          84.75         -57.55          109.5          81.34
     1.481              -14.06          30.29          25.02          38.67         -8.211         -12.68          61.46          84.72         -57.12          109.3          81.45
     1.531              -14.11          30.24          25.05           38.7         -8.181         -12.62          61.41          84.68         -56.62          109.2          81.58
      1.58              -14.16          30.18          25.09          38.73         -8.146         -12.55          61.35          84.63         -56.05          109.0          81.72
     1.629              -14.23          30.11          25.13          38.77         -8.105         -12.46          61.28          84.57         -55.38          108.8          81.89
     1.679               -14.3          30.03          25.18          38.82         -8.057         -12.37           61.2           84.5          -54.6          108.5          82.08
     1.728              -14.39          29.94          25.24          38.88           -8.0         -12.25          61.11          84.43         -53.68          108.2          82.32
     1.778               -14.5          29.83          25.31          38.94         -7.933         -12.11           61.0          84.33         -52.59          107.8          82.59
     1.827              -14.62           29.7          25.39          39.02         -7.853         -11.95          60.87          84.22         -51.28          107.4          82.92
